<svg width="41" height="40" viewBox="0 0 41 40" fill="none" xmlns="http://www.w3.org/2000/svg">
<path d="M39.1667 16.6667C39.1667 15.7827 38.8155 14.9348 38.1904 14.3097C37.5652 13.6846 36.7174 13.3334 35.8333 13.3334H25.3L26.9 5.71675C26.9333 5.55008 26.95 5.36675 26.95 5.18341C26.95 4.50008 26.6667 3.86675 26.2167 3.41675L24.45 1.66675L13.4833 12.6334C12.8667 13.2501 12.5 14.0834 12.5 15.0001V31.6667C12.5 32.5508 12.8512 33.3987 13.4763 34.0238C14.1014 34.6489 14.9493 35.0001 15.8333 35.0001H30.8333C32.2167 35.0001 33.4 34.1668 33.9 32.9668L38.9333 21.2167C39.0833 20.8334 39.1667 20.4334 39.1667 20.0001V16.6667ZM2.5 35.0001H9.16667V15.0001H2.5V35.0001Z" fill="white"/>
</svg>
