<svg width="16" height="16" viewBox="0 0 16 16" fill="none" xmlns="http://www.w3.org/2000/svg">
<path d="M11.3332 12C10.5932 12 9.99984 12.5933 9.99984 13.3333C9.99984 13.687 10.1403 14.0261 10.3904 14.2762C10.6404 14.5262 10.9795 14.6667 11.3332 14.6667C11.6868 14.6667 12.0259 14.5262 12.276 14.2762C12.526 14.0261 12.6665 13.687 12.6665 13.3333C12.6665 12.9797 12.526 12.6406 12.276 12.3905C12.0259 12.1405 11.6868 12 11.3332 12ZM0.666504 1.33334V2.66668H1.99984L4.39984 7.72668L3.49317 9.36001C3.39317 9.54668 3.33317 9.76668 3.33317 10C3.33317 10.3536 3.47365 10.6928 3.72369 10.9428C3.97374 11.1929 4.31288 11.3333 4.6665 11.3333H12.6665V10H4.9465C4.9023 10 4.85991 9.98245 4.82865 9.95119C4.7974 9.91994 4.77984 9.87755 4.77984 9.83334C4.77984 9.80001 4.7865 9.77334 4.79984 9.75334L5.39984 8.66668H10.3665C10.8665 8.66668 11.3065 8.38668 11.5332 7.98001L13.9198 3.66668C13.9665 3.56001 13.9998 3.44668 13.9998 3.33334C13.9998 3.15653 13.9296 2.98696 13.8046 2.86194C13.6796 2.73691 13.51 2.66668 13.3332 2.66668H3.47317L2.8465 1.33334M4.6665 12C3.9265 12 3.33317 12.5933 3.33317 13.3333C3.33317 13.687 3.47365 14.0261 3.72369 14.2762C3.97374 14.5262 4.31288 14.6667 4.6665 14.6667C5.02013 14.6667 5.35926 14.5262 5.60931 14.2762C5.85936 14.0261 5.99984 13.687 5.99984 13.3333C5.99984 12.9797 5.85936 12.6406 5.60931 12.3905C5.35926 12.1405 5.02013 12 4.6665 12Z" fill="white"/>
</svg>
