<svg width="41" height="40" viewBox="0 0 41 40" fill="none" xmlns="http://www.w3.org/2000/svg">
<path d="M33.8335 13.3334L20.5002 21.6667L7.16683 13.3334V10.0001L20.5002 18.3334L33.8335 10.0001M33.8335 6.66675H7.16683C5.31683 6.66675 3.8335 8.15008 3.8335 10.0001V30.0001C3.8335 30.8841 4.18469 31.732 4.80981 32.3571C5.43493 32.9822 6.28277 33.3334 7.16683 33.3334H33.8335C34.7176 33.3334 35.5654 32.9822 36.1905 32.3571C36.8156 31.732 37.1668 30.8841 37.1668 30.0001V10.0001C37.1668 9.11603 36.8156 8.26818 36.1905 7.64306C35.5654 7.01794 34.7176 6.66675 33.8335 6.66675Z" fill="white"/>
</svg>
