<svg width="41" height="40" viewBox="0 0 41 40" fill="none" xmlns="http://www.w3.org/2000/svg">
<path d="M35.3332 20.8334L37.6665 23.1834L26.7832 34.1667L20.9998 28.3334L23.3332 25.9834L26.7832 29.4501L35.3332 20.8334ZM16.8332 28.3334L21.8332 33.3334H5.1665V30.0001C5.1665 26.3167 11.1332 23.3334 18.4998 23.3334L21.6498 23.5167L16.8332 28.3334ZM18.4998 6.66675C20.2679 6.66675 21.9636 7.36913 23.2139 8.61937C24.4641 9.86961 25.1665 11.5653 25.1665 13.3334C25.1665 15.1015 24.4641 16.7972 23.2139 18.0475C21.9636 19.2977 20.2679 20.0001 18.4998 20.0001C16.7317 20.0001 15.036 19.2977 13.7858 18.0475C12.5355 16.7972 11.8332 15.1015 11.8332 13.3334C11.8332 11.5653 12.5355 9.86961 13.7858 8.61937C15.036 7.36913 16.7317 6.66675 18.4998 6.66675Z" fill="white"/>
</svg>
