<svg width="41" height="40" viewBox="0 0 41 40" fill="none" xmlns="http://www.w3.org/2000/svg">
<g clip-path="url(#clip0_517_1223)">
<path d="M20.5 9.16675C22.0471 9.16675 23.5308 9.78133 24.6248 10.8753C25.7188 11.9693 26.3333 13.453 26.3333 15.0001C26.3333 16.5472 25.7188 18.0309 24.6248 19.1249C23.5308 20.2188 22.0471 20.8334 20.5 20.8334C18.9529 20.8334 17.4692 20.2188 16.3752 19.1249C15.2812 18.0309 14.6667 16.5472 14.6667 15.0001C14.6667 13.453 15.2812 11.9693 16.3752 10.8753C17.4692 9.78133 18.9529 9.16675 20.5 9.16675ZM8.83333 13.3334C9.76667 13.3334 10.6333 13.5834 11.3833 14.0334C11.1333 16.4167 11.8333 18.7834 13.2667 20.6334C12.4333 22.2334 10.7667 23.3334 8.83333 23.3334C7.50725 23.3334 6.23548 22.8066 5.2978 21.8689C4.36012 20.9313 3.83333 19.6595 3.83333 18.3334C3.83333 17.0073 4.36012 15.7356 5.2978 14.7979C6.23548 13.8602 7.50725 13.3334 8.83333 13.3334ZM32.1667 13.3334C33.4927 13.3334 34.7645 13.8602 35.7022 14.7979C36.6399 15.7356 37.1667 17.0073 37.1667 18.3334C37.1667 19.6595 36.6399 20.9313 35.7022 21.8689C34.7645 22.8066 33.4927 23.3334 32.1667 23.3334C30.2333 23.3334 28.5667 22.2334 27.7333 20.6334C29.1865 18.7574 29.8609 16.3937 29.6167 14.0334C30.3667 13.5834 31.2333 13.3334 32.1667 13.3334ZM9.66667 30.4167C9.66667 26.9667 14.5167 24.1667 20.5 24.1667C26.4833 24.1667 31.3333 26.9667 31.3333 30.4167V33.3334H9.66667V30.4167ZM0.5 33.3334V30.8334C0.5 28.5167 3.65 26.5667 7.91667 26.0001C6.93333 27.1334 6.33333 28.7001 6.33333 30.4167V33.3334H0.5ZM40.5 33.3334H34.6667V30.4167C34.6667 28.7001 34.0667 27.1334 33.0833 26.0001C37.35 26.5667 40.5 28.5167 40.5 30.8334V33.3334Z" fill="white"/>
</g>
<defs>
<clipPath id="clip0_517_1223">
<rect width="40" height="40" fill="white" transform="translate(0.5)"/>
</clipPath>
</defs>
</svg>
