<svg width="350" height="124" viewBox="0 0 350 124" fill="none" xmlns="http://www.w3.org/2000/svg">
<g clip-path="url(#clip0_751_1520)">
<path d="M8.99708 7.78221C5.67949 4.76196 4.02069 3.20943 0.69043 0H22.3878C22.3244 21.7093 22.2928 32.5574 22.2231 54.2667C29.2952 52.9099 32.8407 52.2641 39.9318 51.0638C41.7678 47.0129 42.6859 45.0233 44.522 41.0898C46.2441 48.2262 47.1051 51.7422 48.8209 58.6895C31.9227 61.8532 23.4894 63.6993 6.70516 67.9264C7.59787 63.4971 8.04106 61.2988 8.9401 56.9412C8.96543 37.2802 8.97809 27.4497 9.00341 7.78873L8.99708 7.78221Z" fill="white"/>
<path d="M55.6832 6.64064C52.3719 4.05092 50.7195 2.72671 47.4082 0H93.2531C93.2214 4.46841 93.2087 6.69935 93.1834 11.1678C90.9358 9.97401 89.8088 9.36735 87.5612 8.14751C76.855 8.36278 71.5051 8.48672 60.8052 8.76722C64.0975 9.98706 65.7373 10.5872 69.0296 11.7483C69.0042 16.0993 68.9852 18.2716 68.9599 22.6225C75.7534 22.1855 79.1533 21.9833 85.9531 21.618C84.7438 24.9513 84.1423 26.6343 82.9331 30.0199C77.3172 30.4504 74.5125 30.6853 68.9029 31.181C68.8649 37.3911 68.8459 40.4897 68.8016 46.6998C75.9117 45.7539 79.4699 45.3234 86.5926 44.5341C88.4413 41.0702 89.3593 39.3546 91.2081 35.9756C92.9302 42.2836 93.7976 45.4017 95.5197 51.5857C78.5391 53.5753 70.0552 54.8408 53.1444 57.8936C54.0561 54.1428 54.5182 52.2837 55.4299 48.5915C55.5249 31.8138 55.5756 23.4249 55.6769 6.64064H55.6832Z" fill="white"/>
<path d="M143.645 -0.000556851C143.632 4.10255 143.626 6.15737 143.613 10.254C141.359 9.12544 140.232 8.55792 137.978 7.42288C133.837 7.45549 131.773 7.47506 127.633 7.52072C122.422 7.57943 118.459 9.86909 115.73 14.4941C113.925 17.573 113.014 21.076 112.995 24.9508C112.963 30.3977 114.508 34.6965 117.636 37.6972C120.206 40.1695 123.486 41.2654 127.405 41.0762C128.627 41.0044 129.235 40.9718 130.45 40.9001C130.475 35.8968 130.482 33.3918 130.507 28.3885C127.183 26.2815 125.518 25.2182 122.2 23.0786C130.893 22.759 135.243 22.6285 143.936 22.4459C143.91 29.5758 143.898 33.1374 143.879 40.2673C144.772 43.1832 145.215 44.6379 146.107 47.5472C136.427 47.9582 131.59 48.2518 121.922 49.0084C114.084 49.6216 108.012 47.3124 103.694 41.7677C100.307 37.4102 98.6164 31.9633 98.6544 25.5509C98.6988 18.3362 100.813 12.2044 104.986 7.36417C106.638 5.47895 108.525 3.946 110.659 2.75224C108.322 1.66287 107.157 1.11492 104.821 -0.00708008H143.651L143.645 -0.000556851Z" fill="white"/>
<path d="M153.9 5.45994C150.576 3.28771 148.918 2.19833 145.6 0H191.445C191.451 4.05745 191.458 6.08617 191.464 10.1436C189.204 8.99553 188.07 8.42148 185.81 7.27992C175.098 7.25383 169.741 7.25383 159.029 7.29949C162.327 8.37582 163.98 8.91073 167.278 9.98706C167.278 13.6857 167.278 15.5383 167.272 19.2305C174.085 19.1979 177.491 19.1979 184.303 19.2305C183.119 22.1333 182.524 23.588 181.334 26.4908C175.705 26.4647 172.894 26.4647 167.266 26.4973C167.266 31.7746 167.266 34.4165 167.253 39.6938C174.401 39.6221 177.972 39.6286 185.12 39.7199C186.95 36.8301 187.861 35.3885 189.685 32.4987C191.464 38.3566 192.357 41.292 194.142 47.189C177.105 46.7128 168.583 46.7454 151.552 47.3325C152.463 44.371 152.913 42.8902 153.818 39.9417C153.85 26.1451 153.869 19.25 153.9 5.45342V5.45994Z" fill="white"/>
<path d="M208.28 16.7908C209.888 20.5547 210.692 22.4399 212.3 26.2364C212.332 34.9188 212.351 39.2633 212.383 47.9457C207.299 47.6652 204.754 47.5543 199.669 47.3717C200.562 44.4688 201.005 43.0142 201.898 40.1048C201.86 26.2495 201.841 19.3283 201.797 5.47951C198.46 3.27466 196.795 2.17876 193.465 0H211.395C222.557 13.1769 228.154 19.8893 239.367 34.3578C237.721 30.346 236.897 28.3565 235.251 24.4034C235.213 16.9343 235.188 13.1965 235.15 5.72739C231.807 3.40512 230.142 2.25704 226.799 0H245.527C245.635 17.1039 245.685 25.6559 245.787 42.7598C246.705 45.9757 247.167 47.5869 248.085 50.8355C243.007 50.2941 240.475 50.0397 235.391 49.5961C224.52 35.7799 219.094 29.3545 208.274 16.7908H208.28Z" fill="white"/>
<path d="M257.171 43.8426C257.076 28.7022 257.025 21.1287 256.93 5.98832C253.587 3.54864 251.916 2.34836 248.579 0H281.331C288.707 0 294.443 3.32032 298.527 10.3132C301.68 15.7079 303.288 22.1724 303.326 29.4589C303.37 37.7303 301.483 44.5536 297.666 49.3939C293.683 54.4494 288.289 56.2693 281.685 55.2778C271.017 53.6013 265.68 52.8642 254.986 51.6118C255.866 48.5198 256.303 46.9672 257.177 43.8426H257.171ZM262.077 8.13446C265.382 9.41302 267.035 10.0653 270.346 11.4026C270.435 24.9709 270.479 31.7551 270.568 45.3234C272.822 45.5908 273.955 45.7278 276.209 46.0148C280.881 46.6019 284.357 44.4884 286.643 39.4525C288.067 36.2822 288.77 32.5444 288.738 28.2978C288.7 21.9246 287.2 16.6603 284.237 12.8703C281.996 10.0066 279.178 8.55195 275.899 8.42801C270.371 8.29754 267.611 8.23883 262.084 8.12794L262.077 8.13446Z" fill="white"/>
<path d="M339.192 10.3529C335.064 10.1964 332.994 10.1246 328.866 9.97457C325.352 9.85063 322.946 11.2988 321.661 14.2603C321.23 15.2845 321.015 16.3673 321.021 17.5219C321.027 19.7725 322.553 21.5402 325.586 22.8971C325.877 23.0341 328.574 23.9473 333.671 25.7999C339.774 28.0178 344.023 31.0772 346.359 34.8607C348.524 38.3636 349.594 42.7929 349.594 47.9528C349.594 54.2086 347.802 59.0684 344.219 62.2778C340.787 65.3568 336.362 66.1265 330.961 64.8675C320.97 62.5452 315.962 61.482 305.934 59.538C307.656 52.506 308.517 48.9378 310.239 41.697C312.043 45.6827 312.949 47.7114 314.753 51.8211C318.786 52.5256 320.799 52.8909 324.826 53.6541C329.378 54.5086 332.512 53.4192 334.228 50.2294C334.849 49.0226 335.159 47.6919 335.152 46.2502C335.146 43.0212 333.437 40.3924 330.024 38.455C329.347 38.0766 326.542 36.9024 321.661 35.0368C316.095 32.9037 312.189 30.3662 310.024 27.4242C307.991 24.6649 306.959 21.188 306.94 16.9544C306.915 11.9315 308.555 7.82843 311.866 4.47549C312.246 4.11019 312.613 3.79055 312.949 3.52962C310.429 2.08799 309.163 1.39 306.643 0.00708008H344.827C344.827 5.88451 344.827 8.81996 344.839 14.6974C342.585 12.9296 341.458 12.062 339.205 10.3594L339.192 10.3529Z" fill="white"/>
<path d="M186.374 42.1275L185.102 42.1144C180.948 42.0622 178.251 42.0427 175.484 42.0427C173.18 42.0427 170.73 42.0557 167.285 42.0883L164.943 42.1144L164.956 24.4561H156.174L156.136 40.3205C156.136 40.3205 155.142 43.5691 154.75 44.8477C162.765 44.5932 168.628 44.4824 174.408 44.4824C179.22 44.4824 184.304 44.5541 190.971 44.7237C190.236 42.2971 189.629 40.3075 188.951 38.057C188.394 38.9376 186.374 42.1275 186.374 42.1275Z" fill="#999999"/>
<path d="M141.606 24.8866C137.091 24.991 133.736 25.0758 129.899 25.1997C130.456 25.552 132.83 27.0588 132.83 27.0588L132.754 43.1647L130.57 43.2821C129.355 43.3473 128.747 43.3865 127.506 43.4582C127.183 43.4713 126.86 43.4843 126.543 43.4843C122.365 43.4843 118.832 42.1275 116.046 39.4464C112.444 35.9826 110.633 31.1032 110.671 24.9388C110.671 24.7757 110.671 24.6126 110.684 24.4561H100.997C100.984 24.8279 100.971 25.1997 100.971 25.5715C100.933 31.4163 102.459 36.3675 105.505 40.2814C108.873 44.6128 113.463 46.7198 119.528 46.7198C120.244 46.7198 120.991 46.6872 121.744 46.6285C130.437 45.9501 135.167 45.65 142.986 45.2978C142.581 43.967 141.561 40.6337 141.561 40.6337L141.612 24.8866H141.606Z" fill="#999999"/>
<path d="M42.0336 52.0683L41.5145 53.2099L40.3052 53.4121C33.2205 54.6124 29.7509 55.2386 22.6472 56.6085L19.8931 57.1369L19.9881 24.449H11.2825L11.2446 57.1825L11.1939 57.4239C10.5861 60.3919 10.1872 62.3554 9.70605 64.7038C23.5273 61.2595 31.6883 59.4852 45.9464 56.7911C45.1359 53.523 44.5155 50.9789 43.819 48.1087C43.2809 49.2764 42.7174 50.5223 42.021 52.0683H42.0336Z" fill="#999999"/>
<path d="M88.6248 45.6827L88.0424 46.7786L86.8394 46.9091C79.6977 47.6984 76.2155 48.1224 69.0928 49.0683L66.459 49.4205L66.592 28.9898L68.6939 28.8006C73.8413 28.344 76.5891 28.1157 81.2616 27.7504C81.6984 26.524 82.0656 25.5064 82.4455 24.4496H78.0453C75.3481 24.6062 72.7143 24.7758 69.0928 25.0041L66.6173 25.1607V24.4431H57.8928L57.7471 48.8856L57.6775 49.1661C57.1014 51.4949 56.7088 53.0931 56.2656 54.8935C70.1565 52.4212 78.3555 51.2079 92.5376 49.5184C91.7842 46.8047 91.1763 44.6325 90.4989 42.1667C89.9417 43.1974 89.3593 44.2933 88.6248 45.6762V45.6827Z" fill="#999999"/>
<path d="M290.847 24.449C290.974 25.6753 291.037 26.9539 291.05 28.2846C291.081 32.89 290.303 36.9866 288.732 40.4635C285.725 47.1041 281.059 48.5001 277.678 48.5001C277.108 48.5001 276.519 48.461 275.918 48.3892C273.67 48.1087 272.543 47.9652 270.289 47.6978L268.251 47.4564L268.099 24.4555H259.355L259.482 44.1752L259.387 44.5079C258.804 46.5823 258.418 47.9652 257.962 49.5634C266.991 50.6397 272.227 51.3769 282.002 52.9163C283.041 53.0729 284.047 53.1512 285.003 53.1512C289.511 53.1512 293.063 51.429 295.855 47.8869C299.306 43.5033 301.04 37.3063 300.996 29.4653C300.99 27.7367 300.889 26.0667 300.692 24.449H290.841H290.847Z" fill="#999999"/>
<path d="M332.893 28.0504C330.082 27.0262 328.018 26.2956 326.651 25.8129C325.226 25.3106 324.871 25.1801 324.644 25.0823C324.2 24.8801 323.782 24.6713 323.39 24.4561H310.911C311.19 24.9844 311.506 25.4932 311.861 25.976C313.741 28.5265 317.306 30.8162 322.459 32.7927C325.182 33.8365 329.924 35.6825 331.133 36.3609C336.35 39.3225 337.452 43.3669 337.458 46.2436C337.458 48.0767 337.059 49.7923 336.261 51.3448L336.236 51.3839C335.021 53.6344 332.539 56.322 327.581 56.322C326.594 56.322 325.517 56.2176 324.39 56.0024C320.351 55.2457 318.382 54.8869 314.343 54.1759L313.127 53.9606L312.62 52.7995C311.949 51.273 311.405 50.0336 310.892 48.8725C310.215 51.7036 309.588 54.2868 308.765 57.6527C317.318 59.3292 322.225 60.386 331.456 62.5321C332.931 62.8779 334.33 63.0475 335.597 63.0475C338.433 63.0475 340.75 62.206 342.681 60.4643C345.72 57.7376 347.259 53.5235 347.259 47.9397C347.259 43.1908 346.29 39.2181 344.384 36.1261C342.32 32.7862 338.452 30.066 332.881 28.0373L332.893 28.0504Z" fill="#999999"/>
<path d="M209.015 24.449H204.171L204.216 40.47C204.216 40.47 203.203 43.7773 202.797 45.095C205.368 45.1928 207.394 45.2907 210.053 45.4277L209.983 26.7386C209.629 25.8971 209.312 25.1535 209.015 24.449Z" fill="#999999"/>
<path d="M243.482 43.1125L243.381 26.2369C243.381 25.6368 243.375 25.0431 243.368 24.4561H237.803C239.234 27.9003 240.038 29.8442 241.513 33.432L237.569 35.8521C234.163 31.4555 231.295 27.8025 228.629 24.4561H217.948C224.077 31.6707 229.034 37.7178 236.588 47.3069C239.867 47.6005 242.083 47.8092 244.907 48.1027C244.495 46.6611 244.115 45.3304 243.577 43.4386L243.482 43.119V43.1125Z" fill="#999999"/>
<path d="M121.403 87.8872V95.2911L122.719 100.457H112.216L113.533 95.2911V70.9333L108.645 67.0781H130.501C134.299 67.0781 137.136 68.5524 139.004 71.5009C140.137 73.3143 140.707 75.3431 140.707 77.587C140.707 80.7704 139.7 83.3405 137.687 85.2975C135.901 87.0196 133.66 87.8807 130.969 87.8807H121.403V87.8872ZM116.553 72.251L121.403 74.1754V82.76H127.354C129.45 82.76 130.899 81.8141 131.691 79.9158C132.001 79.1591 132.159 78.3568 132.159 77.5088C132.159 75.5518 131.482 74.0775 130.121 73.086C129.298 72.5315 128.361 72.251 127.316 72.251H116.559H116.553Z" fill="white"/>
<path d="M145.424 70.9333L140.536 67.0781H153.294V95.2911L154.611 100.457H144.107L145.424 95.2911V70.9333Z" fill="white"/>
<path d="M179.821 95.2911L182.455 90.1247C182.74 91.2923 183.177 93.0145 183.772 95.2911C184.367 97.6003 184.804 99.3224 185.089 100.457H170.932C166.342 100.457 162.771 98.5005 160.22 94.5866C158.206 91.5207 157.2 87.9003 157.2 83.7254C157.2 79.0548 158.403 75.1408 160.815 71.9836C161.777 70.7833 162.854 69.7918 164.044 69.0025L160.391 67.0781H183.563V74.2602L180.246 72.2445H174.168C171.103 72.2445 168.78 73.7775 167.197 76.8434C166.146 78.8852 165.627 81.2074 165.627 83.8102C165.627 87.4632 166.545 90.3791 168.387 92.5709C169.919 94.3517 171.831 95.2585 174.13 95.2846H179.828L179.821 95.2911Z" fill="white"/>
<path d="M204.823 98.5331L195.13 84.9061L197.042 90.8618V100.457H187.856L189.172 95.2911V70.9333L184.285 67.0781H197.042V80.092L205.336 69.4461L202.316 67.0781H214.308L202.443 81.0509L216.22 100.457H204.273L204.823 98.5331Z" fill="white"/>
<path d="M236.67 72.2517H230.592C228.522 72.2517 227.104 73.0541 226.338 74.6588C226.084 75.2133 225.958 75.8003 225.958 76.4135C225.958 77.6138 226.85 78.501 228.636 79.088C228.807 79.1468 230.396 79.5251 233.397 80.2296C236.999 81.0776 239.494 82.3497 240.881 84.0392C242.159 85.6178 242.793 87.6465 242.793 90.1254C242.793 93.1326 241.729 95.631 239.602 97.614C237.563 99.5123 234.942 100.458 231.738 100.458H216.942L219.538 90.1188L222.172 95.2852H228.123C230.814 95.2852 232.675 94.3915 233.694 92.6107C234.062 91.9388 234.245 91.2408 234.245 90.5102C234.245 88.8729 233.239 87.6791 231.225 86.9159C230.826 86.7724 229.187 86.3614 226.293 85.6896C223.007 84.9002 220.722 83.7456 219.449 82.2257C218.259 80.7971 217.664 78.8989 217.664 76.5309C217.664 73.726 218.639 71.3906 220.595 69.525C220.823 69.3228 221.032 69.1466 221.235 68.9966L217.537 67.0723H239.988V74.2543L236.67 72.2387V72.2517Z" fill="white"/>
<path d="M132.28 113.334L130.545 111.964H140.112V114.514L138.934 113.797H133.35L135.072 114.482V116.811H138.618L137.997 118.644H135.072V121.971H138.782L139.732 120.137L140.65 123.804H131.805L132.274 121.971V113.327L132.28 113.334Z" fill="white"/>
<path d="M149.85 113.804H147.691C146.956 113.804 146.456 114.091 146.184 114.659C146.095 114.854 146.051 115.063 146.051 115.278C146.051 115.702 146.367 116.022 147 116.224C147.064 116.244 147.621 116.381 148.691 116.629C149.97 116.929 150.856 117.379 151.344 117.979C151.793 118.54 152.021 119.258 152.021 120.138C152.021 121.208 151.641 122.089 150.888 122.8C150.166 123.472 149.235 123.811 148.096 123.811H142.847L143.765 120.145L144.702 121.978H146.817C147.773 121.978 148.431 121.665 148.792 121.032C148.925 120.791 148.989 120.543 148.989 120.288C148.989 119.708 148.634 119.284 147.919 119.016C147.779 118.964 147.197 118.821 146.171 118.579C145.006 118.299 144.196 117.888 143.74 117.353C143.316 116.844 143.107 116.172 143.107 115.331C143.107 114.339 143.455 113.504 144.145 112.845C144.227 112.774 144.303 112.708 144.373 112.656L143.062 111.971H151.027V114.522L149.85 113.804Z" fill="white"/>
<path d="M155.301 113.804L153.23 111.971H163.202V114.522L162.037 113.804H158.296L160.03 114.489V121.984L160.48 123.817H156.751L157.219 121.984V113.804H155.288H155.301Z" fill="white"/>
<path d="M173.958 114.522V111.971H178.77C180.15 111.971 181.163 112.441 181.815 113.387C182.189 113.928 182.372 114.522 182.372 115.174C182.372 116.472 181.853 117.581 180.821 118.501C180.581 118.716 179.979 119.166 179.023 119.838C178.118 120.491 177.51 121.084 177.2 121.626C177.13 121.75 177.067 121.867 177.016 121.984H180.726L181.663 120.151L182.6 123.817H173.458L173.908 121.984C174.04 121.528 174.617 120.81 175.642 119.825C176.801 118.703 177.478 118.038 177.681 117.823C178.675 116.746 179.181 115.853 179.188 115.148C179.188 114.633 178.954 114.248 178.479 114C178.225 113.876 177.941 113.811 177.618 113.811H175.129L173.952 114.528L173.958 114.522Z" fill="white"/>
<path d="M184.981 117.875C184.981 115.768 185.582 114.157 186.779 113.041C187.001 112.832 187.229 112.65 187.475 112.5L186.165 111.782H189.907C191.205 111.782 192.313 112.265 193.224 113.23C194.301 114.372 194.839 115.918 194.839 117.881C194.839 119.995 194.225 121.626 192.996 122.761C192.11 123.589 191.078 124.007 189.9 124.007C188.602 124.007 187.494 123.518 186.583 122.546C185.519 121.404 184.981 119.851 184.981 117.881V117.875ZM191.787 117.908C191.787 116.166 191.458 114.939 190.793 114.222C190.508 113.928 190.217 113.785 189.9 113.785C189.356 113.785 188.906 114.176 188.545 114.953C188.191 115.722 188.02 116.701 188.02 117.908C188.02 119.636 188.349 120.856 189.014 121.561C189.293 121.854 189.59 121.998 189.907 121.998C190.451 121.998 190.901 121.613 191.262 120.85C191.616 120.093 191.787 119.114 191.787 117.914V117.908Z" fill="white"/>
<path d="M197.542 114.522V111.971H202.354C203.734 111.971 204.747 112.441 205.399 113.387C205.773 113.928 205.956 114.522 205.956 115.174C205.956 116.472 205.437 117.581 204.405 118.501C204.165 118.716 203.563 119.166 202.607 119.838C201.702 120.491 201.094 121.084 200.784 121.626C200.714 121.75 200.651 121.867 200.6 121.984H204.31L205.247 120.151L206.184 123.817H197.042L197.492 121.984C197.624 121.528 198.201 120.81 199.226 119.825C200.385 118.703 201.062 118.038 201.265 117.823C202.259 116.746 202.765 115.853 202.772 115.148C202.772 114.633 202.538 114.248 202.063 114C201.809 113.876 201.525 113.811 201.202 113.811H198.713L197.536 114.528L197.542 114.522Z" fill="white"/>
<path d="M215.232 120.112C215.232 119.447 214.998 118.944 214.523 118.586C214.219 118.37 213.877 118.259 213.497 118.259H211.566L210.42 116.426H213.212C213.883 116.426 214.333 116.159 214.555 115.631C214.624 115.467 214.662 115.291 214.662 115.115C214.662 114.606 214.447 114.228 214.01 113.98C213.769 113.856 213.497 113.791 213.193 113.791H210.389L209.23 114.509V111.958H214.029C215.416 111.958 216.441 112.375 217.106 113.217C217.467 113.68 217.651 114.189 217.651 114.724C217.651 115.533 217.29 116.192 216.562 116.7C216.182 116.948 215.738 117.131 215.251 117.242C216.429 117.385 217.29 117.94 217.834 118.905C218.125 119.421 218.271 119.975 218.271 120.569C218.271 121.554 217.916 122.356 217.214 122.976C216.568 123.524 215.764 123.798 214.801 123.798H208.628L209.546 120.132L210.496 121.965H213.516C214.251 121.965 214.763 121.632 215.055 120.973C215.175 120.693 215.238 120.406 215.238 120.099L215.232 120.112Z" fill="white"/>
<path d="M122.377 116.916H0.854492V118.873H122.377V116.916Z" fill="white"/>
<path d="M350 116.916H228.477V118.873H350V116.916Z" fill="white"/>
<path d="M89.5308 82.1992H0V91.0512H89.5308V82.1992Z" fill="white"/>
<path d="M349.437 82.1992H259.906V91.0512H349.437V82.1992Z" fill="white"/>
</g>
<defs>
<clipPath id="clip0_751_1520">
<rect width="350" height="124" fill="white"/>
</clipPath>
</defs>
</svg>
