<svg width="117" height="40" viewBox="0 0 117 40" fill="none" xmlns="http://www.w3.org/2000/svg">
<g clip-path="url(#clip0_751_1049)">
<path d="M2.99029 2.51039C1.88765 1.53611 1.33634 1.0353 0.229492 0H7.44081C7.41977 7.003 7.40925 10.5024 7.3861 17.5054C9.73657 17.0677 10.915 16.8594 13.2717 16.4722C13.882 15.1654 14.1871 14.5236 14.7973 13.2548C15.3697 15.5568 15.6559 16.691 16.2261 18.9321C10.6098 19.9527 7.80696 20.5482 2.22855 21.9117C2.52525 20.4829 2.67255 19.7738 2.97135 18.3681C2.97977 12.0259 2.98398 8.85475 2.99239 2.51249L2.99029 2.51039Z" fill="white"/>
<path d="M18.5071 2.14214C17.4066 1.30675 16.8574 0.879583 15.7568 0H30.9938C30.9833 1.44142 30.9791 2.16108 30.9707 3.6025C30.2237 3.21742 29.8491 3.02173 29.1021 2.62823C25.5438 2.69767 23.7657 2.73765 20.2095 2.82813C21.3037 3.22163 21.8487 3.41522 22.9429 3.78978C22.9345 5.19333 22.9282 5.89405 22.9198 7.2976C25.1776 7.15661 26.3076 7.09138 28.5676 6.97354C28.1657 8.04882 27.9658 8.59172 27.5639 9.68384C25.6974 9.82272 24.7652 9.89847 22.9008 10.0584C22.8882 12.0617 22.8819 13.0612 22.8672 15.0644C25.2302 14.7593 26.4128 14.6204 28.7801 14.3658C29.3946 13.2485 29.6997 12.695 30.3142 11.605C30.8865 13.6399 31.1748 14.6457 31.7472 16.6405C26.1035 17.2823 23.2838 17.6906 17.6633 18.6754C17.9663 17.4654 18.1199 16.8657 18.4229 15.6747C18.4545 10.2625 18.4713 7.55642 18.505 2.14214H18.5071Z" fill="white"/>
<path d="M47.7417 -1.44634e-06C47.7375 1.32358 47.7354 1.98643 47.7312 3.30791C46.9821 2.94387 46.6075 2.7608 45.8584 2.39465C44.4822 2.40518 43.7962 2.41149 42.42 2.42622C40.6882 2.44516 39.3709 3.18375 38.464 4.67568C37.8643 5.66889 37.5613 6.79888 37.5549 8.04882C37.5444 9.80588 38.0579 11.1926 39.0974 12.1606C39.9517 12.9581 41.0417 13.3116 42.3443 13.2506C42.7504 13.2274 42.9524 13.2169 43.3564 13.1937C43.3648 11.5798 43.3669 10.7717 43.3753 9.15777C42.2706 8.47809 41.7172 8.13509 40.6145 7.44489C43.5037 7.34178 44.9493 7.2997 47.8385 7.24078C47.8301 9.54074 47.8259 10.6897 47.8196 12.9896C48.1163 13.9302 48.2636 14.3995 48.5603 15.338C45.3428 15.4706 43.7352 15.5653 40.522 15.8094C37.9169 16.0072 35.8989 15.2622 34.4638 13.4736C33.338 12.068 32.7762 10.3109 32.7888 8.24241C32.8035 5.91509 33.5063 3.93708 34.893 2.37572C35.4423 1.76758 36.0693 1.27308 36.7785 0.887999C36.002 0.536587 35.6148 0.359828 34.8383 -0.00210571H47.7438L47.7417 -1.44634e-06Z" fill="white"/>
<path d="M51.1503 1.76127C50.0456 1.06055 49.4942 0.709138 48.3916 0H63.6286C63.6307 1.30885 63.6328 1.96328 63.6349 3.27213C62.8837 2.90178 62.507 2.71661 61.7558 2.34836C58.1954 2.33994 56.4152 2.33994 52.8547 2.35467C53.9511 2.70188 54.5003 2.87443 55.5966 3.22163C55.5966 4.41475 55.5966 5.01236 55.5945 6.20338C57.8587 6.19286 58.9908 6.19286 61.255 6.20338C60.8615 7.13978 60.6637 7.60903 60.2681 8.54543C58.3974 8.53701 57.4631 8.53701 55.5924 8.54753C55.5924 10.2499 55.5924 11.1021 55.5882 12.8045C57.9639 12.7813 59.1507 12.7834 61.5264 12.8129C62.1346 11.8807 62.4376 11.4156 63.0436 10.4835C63.6349 12.3731 63.9316 13.32 64.525 15.2223C58.8624 15.0687 56.0301 15.0792 50.3696 15.2686C50.6726 14.3132 50.822 13.8356 51.1229 12.8844C51.1335 8.4339 51.1398 6.20969 51.1503 1.75917V1.76127Z" fill="white"/>
<path d="M69.2243 5.41638C69.7588 6.63054 70.026 7.23868 70.5605 8.46336C70.571 11.2641 70.5773 12.6656 70.5878 15.4664C68.8981 15.3759 68.0522 15.3401 66.3625 15.2812C66.6592 14.3448 66.8065 13.8755 67.1032 12.937C67.0906 8.46757 67.0842 6.23494 67.0695 1.76758C65.9606 1.05634 65.4071 0.702825 64.3003 0H70.2596C73.9694 4.25062 75.8296 6.41591 79.5562 11.0832C79.0091 9.78905 78.7356 9.14725 78.1885 7.87206C78.1758 5.46268 78.1674 4.25693 78.1548 1.84755C77.0437 1.09843 76.4903 0.728076 75.3793 0H81.6037C81.6395 5.51739 81.6563 8.27608 81.69 13.7935C81.9951 14.8309 82.1487 15.3506 82.4538 16.3986C80.7662 16.2239 79.9245 16.1418 78.2347 15.9987C74.6217 11.5419 72.8184 9.4692 69.2222 5.41638H69.2243Z" fill="white"/>
<path d="M85.4732 14.1428C85.4416 9.25877 85.4248 6.81572 85.3932 1.93172C84.2822 1.14472 83.7266 0.757536 82.6177 0H93.5031C95.9545 0 97.861 1.07107 99.2182 3.32685C100.266 5.06707 100.801 7.1524 100.813 9.50287C100.828 12.1711 100.201 14.3721 98.9321 15.9335C97.6085 17.5643 95.8156 18.1514 93.6209 17.8316C90.0752 17.2908 88.3013 17.053 84.7472 16.649C85.0397 15.6515 85.1849 15.1507 85.4753 14.1428H85.4732ZM87.104 2.62402C88.2024 3.03646 88.7516 3.24688 89.8521 3.67826C89.8816 8.05513 89.8963 10.2436 89.9258 14.6204C90.6749 14.7067 91.0516 14.7509 91.8007 14.8435C93.3537 15.0329 94.5089 14.3511 95.2685 12.7266C95.742 11.7039 95.9756 10.4982 95.965 9.12831C95.9524 7.07244 95.4537 5.3743 94.4689 4.15172C93.724 3.22794 92.7876 2.75869 91.6976 2.71871C89.8606 2.67663 88.9431 2.65769 87.1061 2.62192L87.104 2.62402Z" fill="white"/>
<path d="M112.734 3.33947C111.362 3.28897 110.674 3.26582 109.302 3.21743C108.134 3.17744 107.334 3.64459 106.907 4.59993C106.764 4.9303 106.693 5.27961 106.695 5.65206C106.697 6.37803 107.204 6.94829 108.212 7.38598C108.309 7.43017 109.205 7.72476 110.899 8.32238C112.927 9.03783 114.339 10.0247 115.116 11.2452C115.836 12.3752 116.191 13.804 116.191 15.4685C116.191 17.4865 115.596 19.0541 114.405 20.0894C113.264 21.0826 111.793 21.331 109.998 20.9248C106.678 20.1757 105.013 19.8327 101.68 19.2056C102.253 16.9372 102.539 15.7862 103.111 13.4505C103.711 14.7362 104.012 15.3906 104.611 16.7163C105.952 16.9436 106.621 17.0614 107.959 17.3076C109.472 17.5833 110.514 17.2318 111.084 16.2029C111.29 15.8136 111.393 15.3843 111.391 14.9193C111.389 13.8776 110.821 13.0296 109.687 12.4047C109.462 12.2826 108.53 11.9038 106.907 11.302C105.058 10.6139 103.759 9.79536 103.04 8.84634C102.364 7.95623 102.021 6.83466 102.015 5.46899C102.006 3.84871 102.551 2.52512 103.652 1.44353C103.778 1.32569 103.9 1.22258 104.012 1.13841C103.174 0.673367 102.753 0.44821 101.916 0.00210571H114.607C114.607 1.89805 114.607 2.84497 114.611 4.74091C113.862 4.17066 113.487 3.89079 112.738 3.34158L112.734 3.33947Z" fill="white"/>
<path d="M61.9429 13.5893L61.52 13.5851C60.1396 13.5683 59.2432 13.562 58.3236 13.562C57.5577 13.562 56.7433 13.5662 55.5986 13.5767L54.82 13.5851L54.8242 7.88889H51.9056L51.893 13.0065C51.893 13.0065 51.5626 14.0544 51.4321 14.4668C54.0961 14.3848 56.0447 14.349 57.9659 14.349C59.5651 14.349 61.2549 14.3721 63.4706 14.4268C63.2265 13.6441 63.0245 13.0023 62.7994 12.2763C62.6142 12.5604 61.9429 13.5893 61.9429 13.5893Z" fill="#999999"/>
<path d="M47.064 8.02777C45.5637 8.06144 44.4484 8.08879 43.1732 8.12877C43.3584 8.2424 44.1475 8.72849 44.1475 8.72849L44.1222 13.9239L43.3963 13.9618C42.9923 13.9828 42.7902 13.9955 42.3778 14.0186C42.2705 14.0228 42.1632 14.027 42.058 14.027C40.6691 14.027 39.495 13.5893 38.5691 12.7245C37.3718 11.6071 36.7699 10.0331 36.7826 8.0446C36.7826 7.99199 36.7826 7.93939 36.7868 7.88889H33.5672C33.563 8.00883 33.5588 8.12877 33.5588 8.24871C33.5462 10.1341 34.0533 11.7313 35.0655 12.9938C36.1849 14.3911 37.7105 15.0707 39.7264 15.0707C39.9642 15.0707 40.2125 15.0602 40.4629 15.0413C43.3521 14.8224 44.924 14.7256 47.5227 14.612C47.3881 14.1827 47.0493 13.1075 47.0493 13.1075L47.0661 8.02777H47.064Z" fill="#999999"/>
<path d="M13.9705 16.7962L13.7979 17.1645L13.396 17.2297C11.0413 17.6169 9.88818 17.8189 7.5272 18.2608L6.61184 18.4313L6.6434 7.88678H3.75004L3.73741 18.446L3.72058 18.5238C3.51857 19.4813 3.386 20.1147 3.22607 20.8722C7.81969 19.7612 10.5321 19.1888 15.2709 18.3197C15.0016 17.2655 14.7953 16.4448 14.5639 15.519C14.385 15.8956 14.1977 16.2975 13.9663 16.7962H13.9705Z" fill="#999999"/>
<path d="M29.4556 14.7362L29.262 15.0897L28.8622 15.1318C26.4886 15.3864 25.3312 15.5232 22.9639 15.8283L22.0886 15.9419L22.1327 9.35138L22.8314 9.29035C24.5421 9.14306 25.4554 9.06941 27.0083 8.95157C27.1535 8.55597 27.2756 8.2277 27.4018 7.88681H25.9394C25.0429 7.93731 24.1676 7.99202 22.9639 8.06567L22.1412 8.11617V7.8847H19.2415L19.1931 15.7694L19.1699 15.8599C18.9784 16.6111 18.848 17.1266 18.7007 17.7074C23.3174 16.9099 26.0425 16.5185 30.756 15.9735C30.5056 15.0981 30.3036 14.3974 30.0785 13.602C29.8933 13.9345 29.6997 14.288 29.4556 14.7341V14.7362Z" fill="#999999"/>
<path d="M96.6659 7.88678C96.708 8.28238 96.729 8.69482 96.7332 9.12409C96.7438 10.6097 96.4849 11.9312 95.9631 13.0528C94.9635 15.1949 93.4127 15.6452 92.289 15.6452C92.0996 15.6452 91.9039 15.6326 91.704 15.6094C90.957 15.519 90.5825 15.4727 89.8333 15.3864L89.1558 15.3085L89.1053 7.88888H86.1993L86.2414 14.2501L86.2098 14.3574C86.0162 15.0266 85.8878 15.4727 85.7363 15.9882C88.737 16.3354 90.4772 16.5732 93.7262 17.0698C94.0713 17.1203 94.4059 17.1456 94.7237 17.1456C96.2219 17.1456 97.4024 16.59 98.3304 15.4474C99.4772 14.0333 100.054 12.0343 100.039 9.50496C100.037 8.94733 100.003 8.40864 99.938 7.88678H96.6638H96.6659Z" fill="#999999"/>
<path d="M110.64 9.04834C109.706 8.71797 109.02 8.48229 108.566 8.32657C108.092 8.16454 107.974 8.12246 107.899 8.09089C107.751 8.02566 107.612 7.95833 107.482 7.88889H103.334C103.427 8.05933 103.532 8.22346 103.65 8.37918C104.275 9.20195 105.46 9.94055 107.173 10.5781C108.077 10.9148 109.654 11.5103 110.055 11.7292C111.789 12.6845 112.156 13.9892 112.158 14.9171C112.158 15.5084 112.025 16.0619 111.76 16.5627L111.752 16.5753C111.347 17.3013 110.523 18.1682 108.875 18.1682C108.547 18.1682 108.189 18.1346 107.814 18.0651C106.472 17.821 105.817 17.7053 104.475 17.4759L104.071 17.4065L103.903 17.0319C103.68 16.5395 103.499 16.1397 103.328 15.7652C103.103 16.6784 102.895 17.5117 102.621 18.5975C105.464 19.1383 107.095 19.4792 110.163 20.1715C110.653 20.283 111.118 20.3377 111.539 20.3377C112.482 20.3377 113.252 20.0663 113.894 19.5044C114.904 18.6249 115.415 17.2655 115.415 15.4642C115.415 13.9323 115.093 12.6508 114.46 11.6534C113.774 10.576 112.488 9.69855 110.636 9.04413L110.64 9.04834Z" fill="#999999"/>
<path d="M69.4682 7.88678H67.8585L67.8732 13.0549C67.8732 13.0549 67.5365 14.1217 67.4019 14.5468C68.2562 14.5783 68.9295 14.6099 69.8133 14.6541L69.7902 8.62538C69.6724 8.35393 69.5671 8.11404 69.4682 7.88678Z" fill="#999999"/>
<path d="M80.924 13.9071L80.8903 8.46335C80.8903 8.26976 80.8882 8.07827 80.8861 7.88889H79.0365C79.512 8.99994 79.7793 9.62701 80.2696 10.7844L78.9586 11.565C77.8265 10.1468 76.8733 8.96837 75.9874 7.88889H72.4375C74.4744 10.2162 76.1221 12.1669 78.6325 15.2601C79.7225 15.3548 80.459 15.4222 81.3975 15.5168C81.2607 15.0518 81.1344 14.6225 80.9556 14.0123L80.924 13.9092V13.9071Z" fill="#999999"/>
<path d="M40.3495 28.3508V30.7391L40.7872 32.4057H37.2962L37.7339 30.7391V22.8818L36.1094 21.6382H43.3733C44.6359 21.6382 45.5786 22.1137 46.1993 23.0649C46.576 23.6499 46.7654 24.3043 46.7654 25.0282C46.7654 26.055 46.4308 26.8841 45.7616 27.5154C45.1682 28.0709 44.4233 28.3487 43.529 28.3487H40.3495V28.3508ZM38.7376 23.3069L40.3495 23.9276V26.6968H42.3275C43.024 26.6968 43.5059 26.3917 43.7689 25.7794C43.872 25.5353 43.9246 25.2765 43.9246 25.0029C43.9246 24.3716 43.6995 23.8961 43.247 23.5762C42.9735 23.3974 42.6621 23.3069 42.3149 23.3069H38.7397H38.7376Z" fill="white"/>
<path d="M48.333 22.8818L46.7085 21.6382H50.9486V30.7391L51.3863 32.4057H47.8953L48.333 30.7391V22.8818Z" fill="white"/>
<path d="M59.7651 30.7391L60.6405 29.0726C60.7352 29.4492 60.8804 30.0047 61.0782 30.7391C61.276 31.484 61.4212 32.0396 61.5159 32.4057H56.8107C55.2851 32.4057 54.0983 31.7744 53.2503 30.5119C52.5812 29.5229 52.2466 28.355 52.2466 27.0083C52.2466 25.5016 52.6464 24.2391 53.4481 23.2206C53.768 22.8334 54.1257 22.5136 54.5213 22.2589L53.3071 21.6382H61.0088V23.955L59.9061 23.3048H57.886C56.8676 23.3048 56.0953 23.7993 55.5692 24.7883C55.2199 25.4469 55.0474 26.196 55.0474 27.0356C55.0474 28.214 55.3525 29.1546 55.9648 29.8617C56.4741 30.4361 57.1095 30.7286 57.8734 30.737H59.7672L59.7651 30.7391Z" fill="white"/>
<path d="M68.0748 31.785L64.8531 27.3891L65.4886 29.3103V32.4057H62.4353L62.873 30.7391V22.8818L61.2485 21.6382H65.4886V25.8362L68.2452 22.402L67.2415 21.6382H71.227L67.2836 26.1455L71.8625 32.4057H67.8917L68.0748 31.785Z" fill="white"/>
<path d="M78.6594 23.3069H76.6393C75.9512 23.3069 75.4799 23.5657 75.2253 24.0833C75.1411 24.2622 75.099 24.4516 75.099 24.6494C75.099 25.0366 75.3957 25.3228 75.9891 25.5121C76.0459 25.5311 76.5741 25.6531 77.5715 25.8804C78.7689 26.1539 79.5979 26.5643 80.0588 27.1093C80.4838 27.6185 80.6943 28.2729 80.6943 29.0726C80.6943 30.0426 80.3407 30.8486 79.6337 31.4883C78.9561 32.1006 78.085 32.4057 77.0202 32.4057H72.1025L72.9653 29.0705L73.8407 30.737H75.8187C76.713 30.737 77.3316 30.4487 77.6704 29.8743C77.7925 29.6575 77.8535 29.4324 77.8535 29.1967C77.8535 28.6685 77.5189 28.2835 76.8498 28.0373C76.7172 27.991 76.1722 27.8584 75.2105 27.6417C74.1184 27.387 73.3588 27.0146 72.9358 26.5243C72.5402 26.0635 72.3424 25.4511 72.3424 24.6873C72.3424 23.7824 72.6665 23.0291 73.3167 22.4273C73.3925 22.3621 73.4619 22.3052 73.5292 22.2568L72.3003 21.6361H79.7621V23.9529L78.6594 23.3027V23.3069Z" fill="white"/>
<path d="M43.9648 36.5595L43.3882 36.1176H46.5677V36.9404L46.1763 36.7089H44.3204L44.8927 36.9299V37.6811H46.0711L45.8649 38.2724H44.8927V39.3456H46.1258L46.4415 38.7543L46.7466 39.9369H43.8069L43.9626 39.3456V36.5574L43.9648 36.5595Z" fill="white"/>
<path d="M49.8039 36.711H49.0863C48.8422 36.711 48.676 36.8036 48.5855 36.9867C48.5561 37.0498 48.5413 37.1171 48.5413 37.1866C48.5413 37.3234 48.6465 37.4265 48.857 37.4917C48.878 37.498 49.0632 37.5422 49.4188 37.6222C49.8439 37.719 50.1385 37.8642 50.3005 38.0578C50.4499 38.2387 50.5256 38.4702 50.5256 38.7543C50.5256 39.0994 50.3994 39.3834 50.149 39.6128C49.9091 39.8295 49.5998 39.939 49.221 39.939H47.4766L47.7817 38.7564L48.0931 39.3477H48.7959C49.1137 39.3477 49.3325 39.2467 49.4525 39.0425C49.4967 38.9647 49.5177 38.8847 49.5177 38.8027C49.5177 38.6154 49.3999 38.4786 49.1621 38.3923C49.1158 38.3755 48.9222 38.3292 48.5813 38.2513C48.1941 38.1609 47.9248 38.0283 47.7733 37.8557C47.6323 37.6916 47.5628 37.4749 47.5628 37.2034C47.5628 36.8836 47.6786 36.6142 47.9079 36.4017C47.9353 36.3785 47.9605 36.3575 47.9837 36.3407L47.5481 36.1197H50.1953V36.9425L49.8039 36.711Z" fill="white"/>
<path d="M51.6153 36.711L50.9272 36.1197H54.2415V36.9425L53.8543 36.711H52.6107L53.1872 36.932V39.3498L53.3366 39.9411H52.0972L52.2529 39.3498V36.711H51.6111H51.6153Z" fill="white"/>
<path d="M57.8171 36.9425V36.1197H59.4164C59.8751 36.1197 60.2118 36.2712 60.4285 36.5763C60.5527 36.751 60.6137 36.9425 60.6137 37.1529C60.6137 37.5717 60.4411 37.9294 60.0981 38.2261C60.0182 38.2955 59.8183 38.4407 59.5005 38.6575C59.1996 38.8679 58.9976 39.0594 58.8945 39.234C58.8714 39.274 58.8503 39.3119 58.8335 39.3498H60.0666L60.378 38.7585L60.6894 39.9411H57.6509L57.8003 39.3498C57.8445 39.2025 58.036 38.971 58.3769 38.6533C58.7619 38.2913 58.9871 38.0767 59.0544 38.0072C59.3848 37.66 59.5531 37.3718 59.5552 37.1445C59.5552 36.9783 59.4774 36.8541 59.3196 36.7741C59.2354 36.7342 59.1407 36.7131 59.0334 36.7131H58.2064L57.815 36.9446L57.8171 36.9425Z" fill="white"/>
<path d="M61.48 38.0241C61.48 37.3444 61.6799 36.8246 62.0776 36.4648C62.1512 36.3975 62.227 36.3386 62.3091 36.2902L61.8735 36.0587H63.1171C63.5485 36.0587 63.9167 36.2144 64.2197 36.5258C64.5775 36.8941 64.7563 37.3928 64.7563 38.0262C64.7563 38.708 64.5522 39.234 64.144 39.6002C63.8494 39.8674 63.5064 40.0021 63.115 40.0021C62.6836 40.0021 62.3154 39.8443 62.0124 39.5307C61.6588 39.1625 61.48 38.6617 61.48 38.0262V38.0241ZM63.7421 38.0346C63.7421 37.4728 63.6326 37.0772 63.4117 36.8457C63.317 36.751 63.2202 36.7047 63.115 36.7047C62.934 36.7047 62.7846 36.831 62.6647 37.0814C62.5468 37.3297 62.49 37.6453 62.49 38.0346C62.49 38.5922 62.5994 38.9857 62.8204 39.213C62.913 39.3077 63.0119 39.354 63.1171 39.354C63.2981 39.354 63.4475 39.2298 63.5674 38.9836C63.6852 38.7395 63.7421 38.4239 63.7421 38.0367V38.0346Z" fill="white"/>
<path d="M65.655 36.9425V36.1197H67.2542C67.713 36.1197 68.0497 36.2712 68.2664 36.5763C68.3906 36.751 68.4516 36.9425 68.4516 37.1529C68.4516 37.5717 68.279 37.9294 67.936 38.2261C67.8561 38.2955 67.6562 38.4407 67.3384 38.6575C67.0375 38.8679 66.8355 39.0594 66.7324 39.234C66.7092 39.274 66.6882 39.3119 66.6714 39.3498H67.9045L68.2159 38.7585L68.5273 39.9411H65.4888L65.6382 39.3498C65.6824 39.2025 65.8739 38.971 66.2147 38.6533C66.5998 38.2913 66.825 38.0767 66.8923 38.0072C67.2227 37.66 67.391 37.3718 67.3931 37.1445C67.3931 36.9783 67.3153 36.8541 67.1575 36.7741C67.0733 36.7342 66.9786 36.7131 66.8713 36.7131H66.0443L65.6529 36.9446L65.655 36.9425Z" fill="white"/>
<path d="M71.5346 38.7459C71.5346 38.5312 71.4567 38.3692 71.2989 38.2535C71.1979 38.184 71.0843 38.1483 70.958 38.1483H70.3162L69.9354 37.557H70.8633C71.0864 37.557 71.2358 37.4707 71.3094 37.3002C71.3326 37.2476 71.3452 37.1908 71.3452 37.134C71.3452 36.9699 71.2737 36.8478 71.1285 36.7679C71.0485 36.7279 70.958 36.7068 70.857 36.7068H69.9248L69.5398 36.9383V36.1155H71.1348C71.5956 36.1155 71.9365 36.2502 72.1575 36.5217C72.2774 36.6711 72.3384 36.8352 72.3384 37.0077C72.3384 37.2687 72.2185 37.4812 71.9765 37.6453C71.8502 37.7253 71.7029 37.7842 71.5409 37.82C71.9323 37.8663 72.2185 38.0451 72.3994 38.3566C72.4962 38.5228 72.5446 38.7017 72.5446 38.8932C72.5446 39.2109 72.4268 39.4697 72.1932 39.6696C71.9786 39.8464 71.7114 39.9348 71.3915 39.9348H69.3398L69.645 38.7522L69.9606 39.3435H70.9643C71.2084 39.3435 71.3789 39.2362 71.4757 39.0236C71.5157 38.9331 71.5367 38.8406 71.5367 38.7417L71.5346 38.7459Z" fill="white"/>
<path d="M40.6735 37.7148H0.28418V38.346H40.6735V37.7148Z" fill="white"/>
<path d="M116.326 37.7148H75.9365V38.346H116.326V37.7148Z" fill="white"/>
<path d="M29.7564 26.5159H0V29.3714H29.7564V26.5159Z" fill="white"/>
<path d="M116.139 26.5159H86.3823V29.3714H116.139V26.5159Z" fill="white"/>
</g>
<defs>
<clipPath id="clip0_751_1049">
<rect width="116.326" height="40" fill="white"/>
</clipPath>
</defs>
</svg>
