<svg width="1440" height="1383" viewBox="0 0 1440 1383" fill="none" xmlns="http://www.w3.org/2000/svg">
<path d="M1440 6.2721V1370.17C1434.72 1371.21 1428.49 1372.15 1427.75 1371.68C1422.26 1373.15 1411.7 1372.62 1407.05 1372.38C1410.22 1371.55 1390.47 1367.7 1387.41 1369.3C1391.1 1371.28 1371.99 1371.65 1367.55 1368.74C1364.59 1369.44 1340.41 1367.33 1348.12 1366.96C1349.6 1366.43 1328.05 1366.36 1328.05 1366.36C1328.05 1366.36 1309.68 1367.87 1309.68 1366.26C1309.68 1367.7 1291.51 1366.26 1291.51 1364.92C1291.51 1364.28 1288.34 1364.98 1284.62 1365.82C1279.29 1367.01 1272.82 1368.45 1272.82 1366.56C1272.82 1369.37 1254.02 1372.35 1254.02 1368.47C1254.02 1369.34 1236.49 1365.09 1236.49 1363.22C1236.49 1361.55 1218.11 1356.83 1218.11 1363.12C1218.11 1363.13 1217.47 1363.19 1216.42 1363.28C1211.78 1363.68 1199.21 1364.76 1199.21 1365.83C1199.21 1365.43 1180.62 1365.02 1180.62 1366.83C1180.62 1369.37 1161.5 1364.89 1161.5 1364.26C1161.5 1365.48 1157.02 1365.14 1152.33 1364.78C1147.17 1364.38 1141.76 1363.96 1141.76 1365.59C1141.76 1363.59 1122.64 1357.74 1122.64 1362.32C1122.64 1362.65 1102.68 1368.54 1102.68 1366.56C1102.68 1364.51 1093.53 1363.65 1087.86 1363.12C1085.31 1362.88 1083.46 1362.7 1083.46 1362.52C1083.46 1366.22 1072.83 1365.37 1067.25 1364.92C1065.27 1364.76 1063.92 1364.66 1063.92 1364.82C1063.92 1364.96 1060.05 1364.57 1055.76 1364.14C1050.4 1363.6 1044.38 1362.99 1044.38 1363.25C1044.38 1363.79 1038.8 1364.18 1033.66 1364.53C1029.25 1364.84 1025.16 1365.12 1025.16 1365.46C1025.16 1364.12 1005.31 1362.98 1005.31 1363.62C1005.31 1363.87 1002.8 1363.46 999.562 1362.94C993.599 1361.98 985.136 1360.61 985.136 1362.15C985.136 1362.25 983.301 1362.17 980.749 1362.06C974.93 1361.8 965.386 1361.38 965.386 1362.58C965.386 1364.32 946.693 1365.46 946.693 1364.26C946.693 1362.55 930.746 1369.94 930.746 1370.51C930.746 1373.99 909.096 1366.63 909.096 1366.63C909.096 1367.99 901.539 1367.45 895.902 1367.04C892.549 1366.8 889.875 1366.61 889.875 1366.9C889.875 1366.53 873.082 1370.94 873.082 1371.38C873.082 1371.44 872.216 1371.39 870.859 1371.31C865.969 1371.02 854.706 1370.35 854.706 1373.42C854.706 1374.42 835.696 1374.99 835.696 1374.32C835.696 1376.49 815.419 1371.78 815.419 1371.04C815.419 1371.5 812.651 1371.7 809.264 1371.94C803.923 1372.32 797.043 1372.81 797.043 1374.59C797.043 1374.53 796.002 1374.52 794.407 1374.51C789.188 1374.47 778.033 1374.37 778.033 1372.45C778.033 1372.51 759.34 1373.72 759.34 1371.95C759.34 1372.92 739.591 1374.55 739.591 1373.15C739.591 1376.96 718.258 1375.59 718.258 1371.44C718.258 1372.81 710.285 1372.28 703.767 1371.85C699.258 1371.55 695.445 1371.29 695.445 1371.75C695.445 1370.95 689.253 1370.14 683.859 1369.43C679.698 1368.88 676.013 1368.4 676.013 1368.03C676.013 1368.9 658.693 1364.52 658.693 1363.95C658.693 1367.6 649.873 1366.64 644.117 1366.01C641.33 1365.71 639.261 1365.48 639.261 1365.89C639.261 1366.53 635.593 1366.18 631.507 1365.78C626.368 1365.29 620.567 1364.73 620.567 1365.99C620.567 1368.43 608.731 1365.81 603.636 1364.68C602.237 1364.37 601.347 1364.17 601.347 1364.22C601.347 1365.08 592.826 1367.42 587.886 1368.77C585.869 1369.32 584.449 1369.71 584.449 1369.77C584.449 1369.99 581.902 1369.69 578.673 1369.3C573.08 1368.64 565.438 1367.73 565.438 1368.87C565.438 1368.25 558.121 1369.38 552.885 1370.18C549.968 1370.63 547.696 1370.98 547.696 1370.88C547.696 1371.95 529.426 1373.79 529.426 1371.91C529.426 1370.86 525.738 1371.22 521.695 1371.63C516.792 1372.12 511.366 1372.66 511.366 1370.78C511.366 1370.26 507.359 1370.42 503.088 1370.6C498.211 1370.8 492.99 1371.01 492.99 1370.24C492.99 1371.24 476.093 1375.76 476.093 1372.28C476.093 1370.71 467.115 1374.72 467.115 1378.94C467.115 1378.27 446.838 1377.4 446.838 1378.03C446.838 1377.9 443.22 1377.92 439.204 1377.94C434.195 1377.96 428.567 1377.99 428.567 1377.73C428.567 1377.53 425.879 1378.39 422.496 1379.46C416.76 1381.29 409.029 1383.75 409.029 1382.78C409.029 1383.45 390.231 1382.58 390.231 1380.34C390.231 1381.44 370.588 1379.87 370.588 1379.87C370.588 1381.94 354.641 1376.23 354.641 1375.39C354.641 1373.58 337.742 1371.21 337.742 1371.98C337.742 1375.99 317.571 1374.92 317.571 1373.58C317.571 1371.48 299.089 1369.51 299.089 1372.88C299.089 1372.95 297.776 1372.89 295.842 1372.8C290.412 1372.55 280.079 1372.07 280.079 1373.62C280.079 1375.86 262.23 1373.32 262.23 1370.44C262.23 1369.71 243.115 1372.55 243.115 1372.95C243.115 1372.95 243.003 1372.92 242.796 1372.86C240.347 1372.18 224.634 1367.8 224.634 1372.11C224.634 1367.2 206.046 1369.64 206.046 1371.68C206.046 1373.68 184.06 1369.68 187.127 1368.44C182.846 1369.75 172.186 1368.12 168.555 1367.57C169.61 1365.16 155.036 1367.97 149.967 1369.71C148.549 1368.84 144.508 1369.5 140.534 1370.16C136.222 1370.87 131.988 1371.56 131.273 1370.27C127.439 1370.44 122.558 1369.85 118.77 1369.39C114.313 1368.85 111.371 1368.49 113.426 1369.77C96.1055 1370.81 88.0791 1372.15 96.1055 1373.38C93.7822 1374.05 77.2012 1371.31 77.4121 1370.54C77.0791 1370.69 76.5898 1370.93 75.9844 1371.24C72.3672 1373.04 64.6172 1376.91 61.3594 1374.79C58.6143 1375.16 48.5811 1373.65 44.4619 1372.75L44.1934 1372.74C38.502 1372.57 27.2158 1372.23 25.2412 1373.42C31.6562 1374.85 25.9023 1374.77 17.3799 1374.64C14.3965 1374.6 11.0742 1374.55 7.81543 1374.55C6.86426 1375.42 3.59082 1376.13 0 1376.73V12.8259C5.28027 11.7894 11.5117 10.8531 12.251 11.3212C17.7324 9.85246 28.2686 10.3832 32.9268 10.6178L32.9502 10.619C29.7822 11.455 49.5312 15.3004 52.5938 13.6953C48.8975 11.7225 68.0137 11.3547 72.4492 14.2638C75.4062 13.5616 99.5908 15.6682 91.8809 16.036C90.4023 16.571 113.109 17.8751 111.947 16.6379C110.258 16.4372 130.323 15.1332 130.323 16.7382C130.323 15.3004 148.488 16.7382 148.488 18.0757C148.488 18.7226 151.656 18.0153 155.384 17.183C160.711 15.9935 167.182 14.5486 167.182 16.4372C167.182 13.6284 185.98 10.6525 185.98 14.5313C185.98 13.6619 203.512 17.9085 203.512 19.781C203.512 21.4529 221.888 26.1677 221.888 19.8813C221.888 19.869 222.532 19.8133 223.583 19.7225C228.224 19.3217 240.792 18.2362 240.792 17.1729C240.792 17.5741 259.38 17.9754 259.38 16.1697C259.38 13.6284 278.495 18.1091 278.495 18.7445C278.495 17.5178 282.978 17.8622 287.672 18.2228C292.83 18.6192 298.244 19.0351 298.244 17.4069C298.244 19.4132 317.359 25.2649 317.359 20.6839C317.359 20.3495 337.32 14.4644 337.32 16.4372C337.32 18.49 346.466 19.3496 352.14 19.8829C354.691 20.1227 356.541 20.2965 356.541 20.4832C356.541 16.7841 367.169 17.6319 372.748 18.077C374.733 18.2354 376.079 18.3428 376.079 18.176C376.079 18.0421 379.948 18.4313 384.242 18.8633C389.599 19.402 395.617 20.0074 395.617 19.7476C395.617 19.2072 401.195 18.8221 406.341 18.4667C410.748 18.1625 414.838 17.8801 414.838 17.5407C414.838 18.8782 434.693 20.0151 434.693 19.3798C434.693 19.1324 437.196 19.5365 440.438 20.06C446.401 21.0226 454.864 22.3888 454.864 20.8511C454.864 20.7491 456.699 20.8305 459.251 20.9437C465.07 21.2018 474.614 21.6251 474.614 20.4163C474.614 18.6776 493.307 17.5407 493.307 18.7445C493.307 20.4498 509.254 13.06 509.254 12.4916C509.254 9.01401 530.904 16.3704 530.904 16.3704C530.904 15.0076 538.461 15.551 544.098 15.9563C547.451 16.1974 550.125 16.3897 550.125 16.1029C550.125 16.4707 566.918 12.0569 566.918 11.6222C566.918 11.5568 567.784 11.6081 569.141 11.6885C574.032 11.9782 585.294 12.6452 585.294 9.58245C585.294 8.57932 604.304 8.01088 604.304 8.67964C604.304 6.50616 624.581 11.2209 624.581 11.9566C624.581 11.5023 627.349 11.305 630.736 11.0635C636.077 10.6827 642.957 10.1922 642.957 8.41214C642.957 8.4669 643.998 8.4759 645.593 8.48969C650.812 8.53478 661.967 8.63119 661.967 10.5521C661.967 10.4853 680.66 9.28151 680.66 11.0537C680.66 10.084 700.409 8.44557 700.409 9.84995C700.409 6.03803 721.742 7.40898 721.742 11.5553C721.742 10.1913 729.715 10.7205 736.233 11.1532C740.742 11.4524 744.555 11.7055 744.555 11.2544C744.555 12.0471 750.747 12.8612 756.141 13.5703C760.302 14.1173 763.987 14.6019 763.987 14.966C763.987 14.0966 781.307 18.477 781.307 19.0454C781.307 15.396 790.127 16.3603 795.883 16.9896C798.67 17.2944 800.739 17.5206 800.739 17.106C800.739 16.4691 804.407 16.8229 808.493 17.2171C813.632 17.7128 819.433 18.2723 819.433 17.0057C819.433 14.5654 831.269 17.1904 836.364 18.3206C837.763 18.6307 838.653 18.8283 838.653 18.7779C838.653 17.9231 847.174 15.5845 852.114 14.2287C854.131 13.6751 855.551 13.2853 855.551 13.2272C855.551 13.0069 858.098 13.3107 861.327 13.696C866.92 14.3632 874.562 15.2748 874.562 14.13C874.562 14.7528 881.879 13.624 887.115 12.8163C890.032 12.3664 892.304 12.0161 892.304 12.1237C892.304 11.0537 910.574 9.21464 910.574 11.0872C910.574 12.1448 914.262 11.7755 918.305 11.3707C923.208 10.8796 928.634 10.3362 928.634 12.2241C928.634 12.7393 932.641 12.5765 936.912 12.403C941.789 12.2048 947.01 11.9926 947.01 12.7591C947.01 11.7559 963.908 7.24179 963.908 10.7193C963.908 12.2909 972.885 8.27839 972.885 4.06518C972.885 4.73397 993.162 5.60335 993.162 4.96803C993.162 5.10193 996.78 5.08357 1000.8 5.06319C1005.8 5.03774 1011.43 5.00916 1011.43 5.26897C1011.43 5.46743 1014.12 4.61208 1017.5 3.53601C1023.24 1.71143 1030.97 -0.747706 1030.97 0.21982C1030.97 -0.448933 1049.77 0.420447 1049.77 2.6608C1049.77 1.55736 1069.41 3.12893 1069.41 3.12893C1069.41 1.05576 1085.36 6.77366 1085.36 7.60964C1085.36 9.41527 1102.26 11.7894 1102.26 11.0203C1102.26 7.00772 1122.43 8.07776 1122.43 9.41527C1122.43 11.5219 1140.91 13.4947 1140.91 10.1175C1140.91 10.0472 1142.22 10.1085 1144.16 10.1988C1149.59 10.4524 1159.92 10.935 1159.92 9.38183C1159.92 7.14147 1177.77 9.68277 1177.77 12.5584C1177.77 13.2941 1196.88 10.4518 1196.88 10.0506C1196.88 10.048 1197 10.0793 1197.2 10.137C1199.65 10.8201 1215.37 15.203 1215.37 10.8865C1215.37 15.8019 1233.95 13.3609 1233.95 11.3212C1233.95 9.32334 1255.94 13.3244 1252.87 14.5578C1257.15 13.2529 1267.81 14.8758 1271.45 15.4341C1270.39 17.8416 1284.96 15.0329 1290.03 13.2941C1291.45 14.1599 1295.49 13.4957 1299.47 12.8426C1303.78 12.1337 1308.01 11.4377 1308.73 12.7256C1312.56 12.5566 1317.44 13.1502 1321.23 13.6108C1325.69 14.1525 1328.63 14.5103 1326.57 13.2272C1343.89 12.1906 1351.92 10.8531 1343.89 9.61589C1346.22 8.94714 1362.8 11.6891 1362.59 12.4581C1362.92 12.3095 1363.41 12.0652 1364.02 11.7632C1367.63 9.95896 1375.38 6.09194 1378.64 8.21151C1381.39 7.8437 1391.42 9.34839 1395.54 10.2512L1395.81 10.2592C1401.5 10.4296 1412.78 10.7673 1414.76 9.58245C1408.34 8.14589 1414.1 8.2321 1422.62 8.35978C1425.6 8.40448 1428.93 8.45424 1432.18 8.44557C1433.14 7.57616 1436.41 6.87398 1440 6.2721Z" fill="#0D0D10"/>
</svg>
